<svg id="Layer_1" data-name="Layer 1" xmlns="http://www.w3.org/2000/svg" viewBox="0 0 512 512"><defs><style>.cls-1{fill:#efeae6;}.cls-2{fill:#ffd38d;}.cls-3{fill:#6d4135;}</style></defs><title>speech-bubbles-filled</title><rect class="cls-1" x="106.67" y="32" width="384" height="256"/><polygon class="cls-2" points="405.33 117.33 21.33 117.33 21.33 373.33 85.33 373.33 85.33 480 192 373.33 405.33 373.33 405.33 117.33"/><path class="cls-3" d="M490.67,10.67h-384A21.33,21.33,0,0,0,85.33,32V96h-64A21.33,21.33,0,0,0,0,117.33v256a21.33,21.33,0,0,0,21.33,21.33H64V480a21.33,21.33,0,0,0,36.42,15.08L200.84,394.67H405.33a21.33,21.33,0,0,0,21.33-21.33v-64h64A21.33,21.33,0,0,0,512,288V32A21.33,21.33,0,0,0,490.67,10.67ZM384,352H192a21.34,21.34,0,0,0-15.08,6.25L106.67,428.5V373.33A21.33,21.33,0,0,0,85.33,352H42.67V138.67H384Zm85.33-85.33H426.67V117.33A21.33,21.33,0,0,0,405.33,96H128V53.33H469.33Z"/></svg>